<svg width="882" height="536" viewBox="0 0 882 536" fill="none" xmlns="http://www.w3.org/2000/svg">
<g clip-path="url(#clip0_1_119)">
<path d="M858.926 431.107H852.816L854.853 311.755H856.889L858.926 431.107Z" fill="#3F3D56"/>
<path d="M71.4974 154.845L74.9669 149.483C73.938 146.64 72.7496 143.859 71.4074 141.15L69.1639 142.962L70.9403 140.217C69.2474 136.884 67.9153 134.785 67.9153 134.785C67.9153 134.785 60.957 145.75 58.6322 157.359L63.0845 164.24L58.1557 160.259C57.9801 161.611 57.8898 162.974 57.8853 164.337C57.8853 178.087 62.3758 189.233 67.9153 189.233C73.4547 189.233 77.9453 178.087 77.9453 164.337C77.8414 159.963 77.0675 155.63 75.6507 151.49L71.4974 154.845Z" fill="#759C76"/>
<path d="M96.0553 166.765L102.3 165.427C103.582 162.689 104.709 159.882 105.675 157.018L102.807 156.713L106.005 156.027C107.164 152.474 107.707 150.047 107.707 150.047C107.707 150.047 95.0331 152.881 85.1801 159.446L83.4629 167.46L82.7927 161.159C81.7123 161.992 80.6852 162.891 79.7177 163.852C69.9953 173.574 65.289 184.631 69.206 188.548C73.1229 192.465 84.1798 187.759 93.9023 178.036C96.922 174.87 99.4386 171.259 101.364 167.33L96.0553 166.765Z" fill="#759C76"/>
<path d="M98.3363 219.969C83.8551 220.895 68.0764 219.915 51.2904 219.969V181.537C66.0816 183.84 81.8551 183.603 98.3363 181.537V219.969Z" fill="#3F3D56"/>
<path d="M696.509 232.031H500.998V485.585H696.509V232.031Z" fill="#E6E6E6"/>
<path d="M102.847 245.269H92.6642V485.585H102.847V245.269Z" fill="#E6E6E6"/>
<path d="M864.017 236.614L873.88 221.371C870.955 213.292 867.577 205.383 863.761 197.684L857.384 202.835L862.434 195.031C857.621 185.558 853.834 179.589 853.834 179.589C853.834 179.589 834.054 210.76 827.446 243.762L840.102 263.322L826.091 252.005C825.592 255.85 825.335 259.722 825.322 263.598C825.322 302.684 838.088 334.369 853.834 334.369C869.581 334.369 882.346 302.684 882.346 263.598C882.346 251.481 879.605 238.804 875.824 227.078L864.017 236.614Z" fill="#759C76"/>
<path d="M696.509 214.72H0V235.086H696.509V214.72Z" fill="#E6E6E6"/>
<path d="M107.939 235.086H87.5728V255.452H107.939V235.086Z" fill="#E6E6E6"/>
<path d="M614.155 246.796L613.009 251.379H584.497L582.779 246.796H510.162V293.638H687.344V246.796H614.155Z" fill="#3F3D56"/>
<path d="M614.155 305.857L613.009 310.439H584.497L582.779 305.857H510.162V352.698H687.344V305.857H614.155Z" fill="#3F3D56"/>
<path d="M614.155 364.918L613.009 369.5H584.497L582.779 364.918H510.162V411.759H687.344V364.918H614.155Z" fill="#3F3D56"/>
<path d="M614.155 423.979L613.009 428.561H584.497L582.779 423.979H510.162V470.82H687.344V423.979H614.155Z" fill="#3F3D56"/>
<path d="M377.785 211.665H317.706L319.742 185.19H375.748L377.785 211.665Z" fill="#E6E6E6"/>
<path d="M381.858 208.611H314.651V214.72H381.858V208.611Z" fill="#E6E6E6"/>
<path d="M462.812 14.6268H233.188C231.567 14.6268 230.013 15.2705 228.868 16.4163C227.722 17.5621 227.078 19.1161 227.078 20.7365V160.751H468.922V20.7365C468.922 19.1161 468.278 17.5621 467.132 16.4163C465.986 15.2705 464.432 14.6268 462.812 14.6268Z" fill="#3F3D56"/>
<path d="M227.078 160.751V183.663C227.078 185.283 227.722 186.837 228.868 187.983C230.013 189.129 231.568 189.772 233.188 189.772H462.812C464.432 189.772 465.986 189.129 467.132 187.983C468.278 186.837 468.922 185.283 468.922 183.663V160.751H227.078Z" fill="#E6E6E6"/>
<path d="M457.211 27.3554H239.298V149.55H457.211V27.3554Z" fill="white"/>
<path d="M348.254 181.117C351.629 181.117 354.364 178.381 354.364 175.007C354.364 171.633 351.629 168.897 348.254 168.897C344.88 168.897 342.145 171.633 342.145 175.007C342.145 178.381 344.88 181.117 348.254 181.117Z" fill="#3F3D56"/>
<path d="M865.036 484.057C842.781 485.481 818.533 483.975 792.737 484.057V424.997C815.468 428.535 839.708 428.172 865.036 424.997V484.057Z" fill="#3F3D56"/>
<path d="M831.432 430.3H825.322L827.359 310.949H829.395L831.432 430.3Z" fill="#3F3D56"/>
<path d="M806.993 431.107H800.883L802.92 311.755H804.956L806.993 431.107Z" fill="#3F3D56"/>
<path d="M836.523 234.577L846.386 219.334C843.461 211.255 840.083 203.347 836.268 195.648L829.89 200.799L834.94 192.995C830.127 183.521 826.341 177.553 826.341 177.553C826.341 177.553 806.56 208.723 799.952 241.725L812.608 261.285L798.597 249.969C798.098 253.813 797.841 257.685 797.829 261.562C797.829 300.647 810.594 332.333 826.341 332.333C842.087 332.333 854.853 300.647 854.853 261.562C854.853 249.445 852.111 236.768 848.33 225.041L836.523 234.577Z" fill="#E6E6E6"/>
<path d="M812.085 236.614L821.947 221.371C819.022 213.292 815.644 205.383 811.829 197.684L805.451 202.835L810.501 195.031C805.688 185.558 801.902 179.589 801.902 179.589C801.902 179.589 782.121 210.76 775.513 243.762L788.169 263.322L774.158 252.005C773.659 255.85 773.403 259.722 773.39 263.598C773.39 302.684 786.155 334.369 801.902 334.369C817.648 334.369 830.414 302.684 830.414 263.598C830.414 251.481 827.673 238.804 823.891 227.078L812.085 236.614Z" fill="#759C76"/>
<path d="M368.72 61.8478H309.964V65.2207H368.72V61.8478Z" fill="#3F3D56"/>
<path d="M400.696 74.151H309.964V77.5238H400.696V74.151Z" fill="#759C76"/>
<path d="M383.909 85.7423H309.964V89.1152H383.909V85.7423Z" fill="#759C76"/>
<path d="M353.132 97.2899H309.964V100.663H353.132V97.2899Z" fill="#3F3D56"/>
<path d="M375.115 108.837H309.964V112.21H375.115V108.837Z" fill="#3F3D56"/>
<path d="M290.379 60.6487H283.184V67.8434H290.379V60.6487Z" fill="#3F3D56"/>
<path d="M290.379 72.2401H283.184V79.4347H290.379V72.2401Z" fill="#759C76"/>
<path d="M290.379 83.8314H283.184V91.0261H290.379V83.8314Z" fill="#759C76"/>
<path d="M290.379 95.4228H283.184V102.617H290.379V95.4228Z" fill="#3F3D56"/>
<path d="M290.379 107.014H283.184V114.209H290.379V107.014Z" fill="#3F3D56"/>
<path d="M447.115 55.4626H416.282C414.178 43.2987 414.178 30.8639 416.282 18.7H447.115C443.642 30.708 443.642 43.4545 447.115 55.4626Z" fill="#759C76"/>
<path d="M222.764 129.144L210.079 126.052C205.239 126.059 200.457 124.988 196.081 122.92C191.705 120.851 187.843 117.835 184.776 114.091C181.709 110.346 179.512 105.967 178.345 101.269C177.178 96.5714 177.07 91.673 178.028 86.9284C178.014 75.6077 182.498 64.7451 190.493 56.7301C198.487 48.7151 209.339 44.2044 220.659 44.1901H220.659C231.98 44.1759 242.843 48.6594 250.858 56.6542C258.873 64.6491 263.383 75.5004 263.398 86.8211V86.8212C270.59 111.849 248.064 135.312 222.764 129.144Z" fill="#2F2E41"/>
<path d="M236.62 133.607C253.941 133.607 267.983 119.565 267.983 102.243C267.983 84.9217 253.941 70.8796 236.62 70.8796C219.298 70.8796 205.256 84.9217 205.256 102.243C205.256 119.565 219.298 133.607 236.62 133.607Z" fill="#FFB8B8"/>
<path d="M216.165 118.607C216.165 118.607 206.62 151.334 201.165 154.062C195.711 156.789 244.802 160.88 244.802 160.88C244.802 160.88 243.438 129.516 246.165 126.789C248.893 124.061 216.165 118.607 216.165 118.607Z" fill="#FFB8B8"/>
<path d="M265.256 320.426C265.256 320.426 326.62 314.971 334.802 335.426C342.984 355.88 329.347 477.244 329.347 477.244H303.438V377.698C303.438 377.698 192.966 346.297 192.966 335.387C192.966 324.478 265.256 320.426 265.256 320.426Z" fill="#2F2E41"/>
<path d="M325.256 471.789L338.893 477.244C338.893 477.244 355.256 475.88 348.438 488.153C346.486 491.716 343.756 494.792 340.451 497.153C337.146 499.514 333.35 501.099 329.347 501.789C329.347 501.789 303.438 511.335 302.074 501.789C300.711 492.244 308.893 473.153 308.893 473.153L325.256 471.789Z" fill="#2F2E41"/>
<path d="M231.165 320.426C231.165 320.426 292.529 314.971 300.711 335.426C308.893 355.88 295.256 477.244 295.256 477.244H269.347V377.698C269.347 377.698 190.929 359.534 190.929 348.625C190.929 343.5 185.585 317.454 195.002 311.967C205.63 305.774 231.165 320.426 231.165 320.426Z" fill="#2F2E41"/>
<path d="M291.165 471.789L304.802 477.244C304.802 477.244 321.165 475.88 314.347 488.153C312.396 491.716 309.665 494.792 306.36 497.153C303.055 499.514 299.259 501.099 295.256 501.789C295.256 501.789 269.347 511.335 267.983 501.789C266.62 492.244 274.802 473.153 274.802 473.153L291.165 471.789Z" fill="#2F2E41"/>
<path d="M202.529 149.971L243.509 154.425C249.834 155.113 255.779 157.781 260.497 162.049C265.215 166.317 268.463 171.967 269.778 178.192L285.711 253.607C285.711 253.607 291.165 328.607 280.256 332.698C269.347 336.789 254.347 316.335 233.892 319.062C213.438 321.789 186.847 327.926 186.847 327.926C186.847 327.926 182.624 193.678 182.074 182.698C180.975 160.747 202.529 149.971 202.529 149.971Z" fill="#575A89"/>
<path d="M299.601 324.322L316.424 334.23C316.424 334.23 346.607 329.899 345.665 340.508C344.723 351.116 311.776 349.066 311.776 349.066L291.501 336.573L299.601 324.322Z" fill="#FFB8B8"/>
<path d="M175.743 76.7347C186.932 76.7347 196.003 67.6641 196.003 56.475C196.003 45.2859 186.932 36.2154 175.743 36.2154C164.554 36.2154 155.483 45.2859 155.483 56.475C155.483 67.6641 164.554 76.7347 175.743 76.7347Z" fill="#2F2E41"/>
<path d="M194.436 45.584C194.434 42.5871 193.766 39.6281 192.482 36.9205C191.197 34.2129 189.328 31.8241 187.008 29.9265C184.689 28.0289 181.977 26.6698 179.069 25.9472C176.16 25.2246 173.127 25.1566 170.19 25.748C172.782 24.523 175.605 23.8625 178.471 23.8101C181.338 23.7576 184.183 24.3145 186.818 25.4439C189.453 26.5732 191.819 28.2493 193.758 30.3612C195.697 32.4731 197.165 34.9727 198.066 37.6946C198.967 40.4165 199.28 43.2986 198.983 46.1504C198.687 49.0021 197.788 51.7583 196.347 54.2368C194.906 56.7153 192.954 58.8594 190.623 60.5274C188.291 62.1954 185.631 63.3492 182.82 63.9125C186.296 62.2749 189.234 59.6818 191.291 56.4362C193.348 53.1906 194.439 49.4266 194.436 45.584Z" fill="#2F2E41"/>
<path d="M211.817 57.074L239.13 52.0449L260.135 65.2098C265.299 68.4464 269.426 73.0961 272.028 78.6076C274.629 84.119 275.596 90.261 274.812 96.305L253.775 90.9727L249.064 79.1607L243.454 88.3567L214.12 126.107L197.65 115.619L182.967 92.6095L211.817 57.074Z" fill="#2F2E41"/>
<path d="M234.309 161.57L247.945 154.752C247.945 154.752 276.582 158.843 282.036 177.934C287.491 197.025 312.036 329.298 312.036 329.298L288.854 340.207L256.127 259.753L234.309 161.57Z" fill="#575A89"/>
<path opacity="0.2" d="M245.917 215.23L259.565 268.205L283.767 327.701L282.928 329.761L254.063 269.199L245.917 215.23Z" fill="black"/>
<path d="M144.084 507.379L139.271 505.721L185.896 367.231L192.636 369.553L144.084 507.379Z" fill="#3F3D56"/>
<path d="M322.291 507.379L327.105 505.721L280.479 367.231L273.74 369.553L322.291 507.379Z" fill="#3F3D56"/>
<path d="M223.77 535.981L228.861 535.999L230.443 374.107L223.315 374.082L223.77 535.981Z" fill="#3F3D56"/>
<path d="M132.3 285.856L146.266 342.301C148.221 350.206 152.293 357.429 158.044 363.194C163.795 368.958 171.008 373.048 178.908 375.023H178.908C217.857 384.76 258.635 384.497 297.455 374.259L318.306 368.76C330.422 365.565 339.532 355.159 340.395 342.659C340.744 338.239 339.944 333.805 338.072 329.787C337.99 329.614 337.908 329.442 337.826 329.272C335.107 323.686 330.912 318.95 325.695 315.577C320.478 312.204 314.437 310.321 308.228 310.134L286.139 309.421L205.694 273.781C205.694 273.781 178.027 259.728 155.283 258.155C140.262 257.116 128.683 271.24 132.3 285.856Z" fill="#759C76"/>
<path d="M622.683 108.309H543.257V216.248H622.683V108.309Z" fill="#E6E6E6"/>
<path d="M613.518 120.764H552.421V203.793H613.518V120.764Z" fill="white"/>
<path d="M606.069 142.492H576.467V145.865H606.069V142.492Z" fill="#3F3D56"/>
<path d="M567.065 140.625H559.87V147.819H567.065V140.625Z" fill="#3F3D56"/>
<path d="M606.069 156.748H576.467V160.121H606.069V156.748Z" fill="#3F3D56"/>
<path d="M567.065 154.881H559.87V162.075H567.065V154.881Z" fill="#3F3D56"/>
<path d="M606.069 171.004H576.467V174.377H606.069V171.004Z" fill="#3F3D56"/>
<path d="M567.065 169.137H559.87V176.331H567.065V169.137Z" fill="#3F3D56"/>
<path d="M586.025 114.419C586.025 112.732 584.657 111.364 582.97 111.364C581.283 111.364 579.915 112.732 579.915 114.419C579.915 116.106 581.283 117.474 582.97 117.474C584.657 117.474 586.025 116.106 586.025 114.419Z" fill="#3F3D56"/>
<path d="M459.262 487.628L414.489 486.36C414.489 486.36 417.859 466.246 407.046 460.663C399.676 456.856 393.134 439.071 394.996 426.972C395.02 426.809 395.046 426.65 395.075 426.492C396.019 421.073 398.715 416.879 403.867 415.74C420.531 412.06 432.423 414.914 432.423 414.914C432.423 414.914 435.176 414.949 439.255 415.713C439.4 415.74 439.545 415.768 439.692 415.799C451.24 418.057 472.584 426.095 473.508 454.635C474.779 493.846 459.262 487.628 459.262 487.628V487.628Z" fill="#3F3D56"/>
<path d="M439.255 415.713C439.181 417.759 438.715 419.792 437.866 421.726C436.105 425.732 432.897 428.792 428.834 430.342C416.664 434.99 402.46 430.38 395.277 425.381C395.248 425.539 394.677 428.534 394.653 428.696C397.834 430.867 413.4 432.962 416.353 432.962C420.836 432.962 425.152 432.22 428.992 430.752C433.165 429.157 436.458 426.014 438.267 421.901C439.13 419.938 439.607 417.875 439.692 415.799C439.545 415.768 439.4 415.74 439.255 415.713H439.255V415.713Z" fill="#575A89"/>
<path d="M442.566 418.318L435.429 400.415C435.429 400.415 443.994 385.767 437.264 384.139C430.535 382.512 423.602 391.26 423.602 391.26C423.602 391.26 410.755 386.784 405.861 390.446C405.861 390.446 397.704 379.053 392.81 381.291C387.916 383.529 394.549 399.659 394.549 399.659C394.549 399.659 384.45 414.453 392.198 422.997C399.947 431.542 429.108 438.459 442.566 418.318H442.566V418.318Z" fill="#3F3D56"/>
<path d="M457.873 476.912C460.303 477.991 462.841 479.091 465.499 478.986C468.156 478.881 470.952 477.174 471.367 474.553C471.58 473.2 471.156 471.748 471.676 470.48C472.374 468.774 474.628 468.116 476.379 468.701C478.131 469.286 479.418 470.793 480.341 472.39C482.067 475.376 482.759 479.297 480.908 482.208C479.303 484.732 476.26 485.873 473.429 486.851C469.658 488.154 465.449 489.448 461.795 487.847C458.12 486.237 456.118 481.586 457.479 477.819" fill="#3F3D56"/>
<path d="M417.67 410.268C417.67 410.268 413.279 408.516 410.425 410.706L413.718 415.744C413.718 415.744 417.67 410.268 417.67 410.268V410.268Z" fill="#575A89"/>
<path d="M394.618 433.267L402.741 476.416C402.741 476.416 390.447 488.901 406.254 488.682C422.061 488.463 417.45 480.358 417.45 480.358L412.401 442.904" fill="#3F3D56"/>
<path d="M405.855 489C401.574 489 398.985 488.021 398.156 486.088C396.647 482.566 401.56 477.195 402.403 476.311L396.941 444.052L397.564 443.947L403.08 476.522L402.967 476.637C402.91 476.695 397.29 482.461 398.738 485.84C399.482 487.575 402.004 488.427 406.249 488.366C412.15 488.284 415.955 487.05 417.254 484.799C418.423 482.771 417.188 480.536 417.175 480.514L417.145 480.461L417.137 480.4L413.624 454.336L414.251 454.252L417.756 480.259C417.964 480.653 419.057 482.929 417.806 485.107C416.373 487.602 412.488 488.911 406.258 488.997C406.122 488.999 405.988 489 405.855 489V489Z" fill="#2F2E41"/>
<path d="M415.255 433.267L423.378 476.416C423.378 476.416 411.084 488.901 426.891 488.682C442.698 488.463 438.087 480.358 438.087 480.358L433.038 442.904" fill="#3F3D56"/>
<path d="M426.492 489C422.211 489 419.622 488.021 418.793 486.088C417.285 482.569 422.187 477.205 423.037 476.314L419.774 458.951L420.396 458.835L423.719 476.519L423.604 476.637C423.547 476.695 417.927 482.461 419.375 485.84C420.119 487.575 422.643 488.43 426.886 488.366C432.792 488.284 436.598 487.049 437.894 484.793C439.062 482.759 437.825 480.536 437.812 480.514L437.782 480.461L432.724 442.946L433.352 442.862L438.393 480.259C438.601 480.653 439.694 482.929 438.443 485.107C437.01 487.602 433.124 488.911 426.895 488.997C426.759 488.999 426.625 489 426.492 489H426.492Z" fill="#2F2E41"/>
</g>
<defs>
<clipPath id="clip0_1_119">
<rect width="882" height="536" fill="white"/>
</clipPath>
</defs>
</svg>
